<svg xmlns="http://www.w3.org/2000/svg" xmlns:xlink="http://www.w3.org/1999/xlink" width="42.458" height="42.451" viewBox="0 0 42.458 42.451">
  <defs>
    <clipPath id="clip-path">
      <rect id="Rectangle_2069" data-name="Rectangle 2069" width="42.458" height="42.451" fill="#38bf67"/>
    </clipPath>
  </defs>
  <g id="Group_4624" data-name="Group 4624" transform="translate(-31.938 -768.699)">
    <g id="Group_2394" data-name="Group 2394" transform="translate(31.938 768.699)">
      <g id="Group_2393" data-name="Group 2393" clip-path="url(#clip-path)">
        <path id="Path_857" data-name="Path 857" d="M127.951,114.229a13.656,13.656,0,1,1-13.673,13.582,13.641,13.641,0,0,1,13.673-13.582M124.2,130.382a3.582,3.582,0,0,0,1.94,3.2.888.888,0,0,1,.554.975c-.037.65-.009,1.3-.009,1.964h2.455c0-.68.028-1.318-.009-1.952a.88.88,0,0,1,.547-.97,3.508,3.508,0,0,0,1.952-3.546,3.606,3.606,0,0,0-2.619-3.235,12.957,12.957,0,0,0-1.3-.218,1.219,1.219,0,0,1-1.006-1.4,1.2,1.2,0,0,1,1.322-1.025c.736.047,1.031.561,1.171,1.16h2.453a3.82,3.82,0,0,0-2.553-3.493V119.2h-2.413c0,.754-.013,1.459.006,2.163a.665.665,0,0,1-.413.716,3.674,3.674,0,0,0-2,4.084,3.723,3.723,0,0,0,3.549,2.924,1.278,1.278,0,0,1,1.316,1.144,1.2,1.2,0,0,1-.874,1.312,1.257,1.257,0,0,1-1.533-.816.614.614,0,0,0-.388-.328c-.679-.034-1.361-.015-2.144-.015" transform="translate(-99.132 -99.089)" fill="#38bf67"/>
        <path id="Path_858" data-name="Path 858" d="M14.066,15.15c-3.566-.119-7.03-.59-10.141-2.423A10.544,10.544,0,0,1,1.44,10.685,4.425,4.425,0,0,1,1.323,4.7,10.222,10.222,0,0,1,6.192,1.411a22.293,22.293,0,0,1,16.883.512,9.147,9.147,0,0,1,3.459,2.606,4.682,4.682,0,0,1-.17,6.432,12.175,12.175,0,0,1-5.792,3.283,25.823,25.823,0,0,1-6.505.906" transform="translate(-0.188 0)" fill="#38bf67"/>
        <path id="Path_859" data-name="Path 859" d="M.127,100.011c5.051,4.042,10.908,4.656,17.126,4.178a8.975,8.975,0,0,0-.678.811c-.841,1.288-1.656,2.593-2.5,3.878-.123.187-.361.431-.541.427-3.824-.081-7.5-.735-10.741-2.947a5.876,5.876,0,0,1-2.665-6.347" transform="translate(0 -86.756)" fill="#38bf67"/>
        <path id="Path_860" data-name="Path 860" d="M15.12,221.642a22.061,22.061,0,0,1-5.326-.263,17.821,17.821,0,0,1-6.16-2.09c-2.653-1.543-4.1-3.7-3.5-6.914a.681.681,0,0,1,.169.091,16.769,16.769,0,0,0,8.211,3.717c1.294.247,2.619.348,3.933.477a.784.784,0,0,1,.807.635c.45,1.283,1.028,2.522,1.56,3.776.075.177.179.341.3.572" transform="translate(-0.001 -184.227)" fill="#38bf67"/>
        <path id="Path_861" data-name="Path 861" d="M12.613,165.2c-3.683-.3-7.255-.984-10.292-3.348a5.821,5.821,0,0,1-2.134-5.965C3.9,159.062,8.372,160,13.025,160.256l-.412,4.941" transform="translate(-0.065 -135.223)" fill="#38bf67"/>
      </g>
    </g>
    <g id="Group_4076" data-name="Group 4076">
      <path id="Path_1674" data-name="Path 1674" d="M-23848.574-22079.074s.473-2.6,4.068-2.955,9.08,1.3,9.08,1.3l3.537,9.08s1.824,4.125-1.652,2.828-2.18,2.83-2.18,2.83l-2.654,3.893a46.579,46.579,0,0,1-5.482,1.768c-.768,0-4.246-2.475-4.717-3.064s-1.473-.592-1.178-2.6-.178.586.766-3.715a48.915,48.915,0,0,1,1.357-4.951,7.884,7.884,0,0,1,.469-1.592c.238-.826-.826-1.65-1-1.945A8.656,8.656,0,0,1-23848.574-22079.074Z" transform="translate(23902 22869)" fill="#38bf67"/>
      <g id="Group_4075" data-name="Group 4075" transform="translate(-715.826 978.088)">
        <path id="Path_1675" data-name="Path 1675" d="M772.948-173.337l-1.633-1.5a5.088,5.088,0,0,1,2.091-1.638,2.614,2.614,0,0,0,1.672-2.375c0-.065-.008-.13-.013-.215h-2.907v-2.23h1.916a4.417,4.417,0,0,1,.552-4.388,4.222,4.222,0,0,1,2.83-1.713,4.387,4.387,0,0,1,4.892,3.02l-2.105.673c-.03-.068-.057-.128-.083-.188a2.183,2.183,0,0,0-2.892-1.14,2.173,2.173,0,0,0-1.093,2.907c0,.007.008.013.011.019.373.8.378.8,1.239.8h2.8v2.232h-2.907a4.957,4.957,0,0,1-.628,2.55c.428.276.834.548,1.25.8a2.181,2.181,0,0,0,2.955-.595c.135-.186.264-.376.4-.577l1.82,1.265a4.763,4.763,0,0,1-1.995,1.984,4.335,4.335,0,0,1-4.731-.441,2.2,2.2,0,0,0-2.976.236C773.265-173.682,773.115-173.517,772.948-173.337Z" transform="translate(0)" fill="#fff"/>
      </g>
    </g>
  </g>
</svg>
