<svg xmlns="http://www.w3.org/2000/svg" xmlns:xlink="http://www.w3.org/1999/xlink" width="42.458" height="42.451" viewBox="0 0 42.458 42.451">
  <defs>
    <clipPath id="clip-path">
      <rect id="Rectangle_2069" data-name="Rectangle 2069" width="42.458" height="42.451" fill="#b1b1b1"/>
    </clipPath>
  </defs>
  <g id="Group_2393" data-name="Group 2393" clip-path="url(#clip-path)">
    <path id="Path_857" data-name="Path 857" d="M127.951,114.229a13.656,13.656,0,1,1-13.673,13.582,13.641,13.641,0,0,1,13.673-13.582M124.2,130.382a3.582,3.582,0,0,0,1.94,3.2.888.888,0,0,1,.554.975c-.037.65-.009,1.3-.009,1.964h2.455c0-.68.028-1.318-.009-1.952a.88.88,0,0,1,.547-.97,3.508,3.508,0,0,0,1.952-3.546,3.606,3.606,0,0,0-2.619-3.235,12.957,12.957,0,0,0-1.3-.218,1.219,1.219,0,0,1-1.006-1.4,1.2,1.2,0,0,1,1.322-1.025c.736.047,1.031.561,1.171,1.16h2.453a3.82,3.82,0,0,0-2.553-3.493V119.2h-2.413c0,.754-.013,1.459.006,2.163a.665.665,0,0,1-.413.716,3.674,3.674,0,0,0-2,4.084,3.723,3.723,0,0,0,3.549,2.924,1.278,1.278,0,0,1,1.316,1.144,1.2,1.2,0,0,1-.874,1.312,1.257,1.257,0,0,1-1.533-.816.614.614,0,0,0-.388-.328c-.679-.034-1.361-.015-2.144-.015" transform="translate(-99.132 -99.089)" fill="#b1b1b1"/>
    <path id="Path_858" data-name="Path 858" d="M14.066,15.15c-3.566-.119-7.03-.59-10.141-2.423A10.544,10.544,0,0,1,1.44,10.685,4.425,4.425,0,0,1,1.323,4.7,10.222,10.222,0,0,1,6.192,1.411a22.293,22.293,0,0,1,16.883.512,9.147,9.147,0,0,1,3.459,2.606,4.682,4.682,0,0,1-.17,6.432,12.175,12.175,0,0,1-5.792,3.283,25.823,25.823,0,0,1-6.505.906" transform="translate(-0.188 0)" fill="#b1b1b1"/>
    <path id="Path_859" data-name="Path 859" d="M.127,100.011c5.051,4.042,10.908,4.656,17.126,4.178a8.975,8.975,0,0,0-.678.811c-.841,1.288-1.656,2.593-2.5,3.878-.123.187-.361.431-.541.427-3.824-.081-7.5-.735-10.741-2.947a5.876,5.876,0,0,1-2.665-6.347" transform="translate(0 -86.756)" fill="#b1b1b1"/>
    <path id="Path_860" data-name="Path 860" d="M15.12,221.642a22.061,22.061,0,0,1-5.326-.263,17.821,17.821,0,0,1-6.16-2.09c-2.653-1.543-4.1-3.7-3.5-6.914a.681.681,0,0,1,.169.091,16.769,16.769,0,0,0,8.211,3.717c1.294.247,2.619.348,3.933.477a.784.784,0,0,1,.807.635c.45,1.283,1.028,2.522,1.56,3.776.075.177.179.341.3.572" transform="translate(-0.001 -184.227)" fill="#b1b1b1"/>
    <path id="Path_861" data-name="Path 861" d="M12.613,165.2c-3.683-.3-7.255-.984-10.292-3.348a5.821,5.821,0,0,1-2.134-5.965C3.9,159.062,8.372,160,13.025,160.256l-.412,4.941" transform="translate(-0.065 -135.223)" fill="#b1b1b1"/>
  </g>
</svg>
